<svg width="31" height="33" viewBox="0 0 31 33" fill="none" xmlns="http://www.w3.org/2000/svg">
<path d="M19.5398 1.00101C13.7553 1.0071 9.06738 5.67999 9.06127 11.445V11.446C9.07145 13.886 9.9288 16.125 11.3543 17.888L11.339 17.8677L1.37267 27.8021C1.14255 28.0325 1 28.3492 1 28.7004C1 29.0515 1.14255 29.3682 1.37267 29.5986L3.40912 31.6285C3.63923 31.8579 3.95794 32 4.30922 32C5.01282 32 5.58302 31.4316 5.58302 30.7303C5.58302 30.3791 5.44047 30.0624 5.20933 29.832L4.073 28.7004L5.32745 27.4499L9.51947 31.6285C9.74959 31.8579 10.0683 32 10.4196 32C11.1232 32 11.6934 31.4316 11.6934 30.7303C11.6934 30.3791 11.5508 30.0624 11.3197 29.832L7.12868 25.6545L13.1454 19.6581C14.8855 21.0404 17.1144 21.8798 19.5398 21.89H19.5418C25.3202 21.8778 30 17.2059 30 11.445C30 5.68405 25.3202 1.01218 19.5429 1L19.5398 1.00101ZM19.5398 19.3536C15.1584 19.3536 11.6068 15.8134 11.6068 11.446C11.6068 7.07861 15.1584 3.53842 19.5398 3.53842C23.9212 3.53842 27.4728 7.07861 27.4728 11.446C27.4677 15.8113 23.9192 19.3485 19.5398 19.3536Z" fill="#FF4646" stroke="#FF4646"/>
</svg>
