<svg width="28" height="28" viewBox="0 0 28 28" fill="#000" xmlns="http://www.w3.org/2000/svg"  id="alert">
<path d="M13.9999 1.00014C11.4288 1.00014 8.91539 1.76257 6.77756 3.19102C4.63973 4.61947 2.9735 6.64978 1.98957 9.02521C1.00563 11.4006 0.748191 14.0145 1.2498 16.5362C1.7514 19.058 2.98952 21.3743 4.8076 23.1924C6.62567 25.0105 8.94204 26.2486 11.4638 26.7502C13.9855 27.2518 16.5994 26.9944 18.9748 26.0104C21.3502 25.0265 23.3805 23.3603 24.809 21.2224C26.2374 19.0846 26.9999 16.5712 26.9999 14.0001C27.0077 12.2907 26.6768 10.5967 26.0262 9.01597C25.3757 7.43521 24.4184 5.999 23.2097 4.79028C22.001 3.58157 20.5648 2.6243 18.984 1.97376C17.4033 1.32322 15.7093 0.992312 13.9999 1.00014ZM13.9999 24.6364C11.8963 24.6364 9.83985 24.0126 8.09072 22.8438C6.34159 21.6751 4.97831 20.0139 4.17327 18.0704C3.36823 16.1269 3.1576 13.9883 3.568 11.925C3.97841 9.86178 4.99142 7.96657 6.47893 6.47906C7.96644 4.99155 9.86165 3.97854 11.9249 3.56813C13.9881 3.15773 16.1267 3.36836 18.0703 4.1734C20.0138 4.97844 21.675 6.34172 22.8437 8.09085C24.0124 9.83998 24.6362 11.8964 24.6362 14.0001C24.6207 16.8162 23.4951 19.5126 21.5038 21.5039C19.5125 23.4953 16.8161 24.6209 13.9999 24.6364Z" fill="white" stroke="white"/>
<path d="M13.9997 11.6364C13.6862 11.6364 13.3856 11.761 13.164 11.9826C12.9424 12.2042 12.8179 12.5048 12.8179 12.8183V19.9091C12.8179 20.2226 12.9424 20.5232 13.164 20.7448C13.3856 20.9664 13.6862 21.0909 13.9997 21.0909C14.3131 21.0909 14.6137 20.9664 14.8353 20.7448C15.057 20.5232 15.1815 20.2226 15.1815 19.9091V12.8183C15.1815 12.5048 15.057 12.2042 14.8353 11.9826C14.6137 11.761 14.3131 11.6364 13.9997 11.6364Z" fill="white" stroke="white"/>
<path d="M13.9997 9.2728C14.6524 9.2728 15.1815 8.74369 15.1815 8.09099C15.1815 7.43829 14.6524 6.90918 13.9997 6.90918C13.347 6.90918 12.8179 7.43829 12.8179 8.09099C12.8179 8.74369 13.347 9.2728 13.9997 9.2728Z" fill="white" stroke="white"/>
</svg>
