<svg width="26" height="26" viewBox="0 0 26 26" fill="none" xmlns="http://www.w3.org/2000/svg">
<path d="M19.815 24.0726C18.825 24.3651 17.655 24.5001 16.2825 24.5001H9.53249C8.15999 24.5001 6.99 24.3651 6 24.0726C6.2475 21.1476 9.25124 18.8413 12.9075 18.8413C16.5638 18.8413 19.5675 21.1476 19.815 24.0726Z" stroke="white" stroke-width="3" stroke-linecap="round" stroke-linejoin="round"/>
<path d="M16.625 2H9.875C4.25 2 2 4.25 2 9.875V16.625C2 20.8775 3.2825 23.2063 6.3425 24.0725C6.59 21.1475 9.59375 18.8412 13.25 18.8412C16.9062 18.8412 19.91 21.1475 20.1575 24.0725C23.2175 23.2063 24.5 20.8775 24.5 16.625V9.875C24.5 4.25 22.25 2 16.625 2ZM13.25 15.6912C11.0225 15.6912 9.2225 13.88 9.2225 11.6525C9.2225 9.42502 11.0225 7.625 13.25 7.625C15.4775 7.625 17.2775 9.42502 17.2775 11.6525C17.2775 13.88 15.4775 15.6912 13.25 15.6912Z" stroke="white" stroke-width="3" stroke-linecap="round" stroke-linejoin="round"/>
<path d="M17.055 11.6525C17.055 13.88 15.255 15.6912 13.0275 15.6912C10.8 15.6912 9 13.88 9 11.6525C9 9.42502 10.8 7.625 13.0275 7.625C15.255 7.625 17.055 9.42502 17.055 11.6525Z" stroke="white" stroke-width="3" stroke-linecap="round" stroke-linejoin="round"/>
</svg>
