<svg width="29" height="28" viewBox="0 0 29 28" fill="none" xmlns="http://www.w3.org/2000/svg">
<path d="M14.5011 2.62144L18.123 10.0868L26.3591 11.3035L20.3943 17.2169L20.5949 18.4034L21.7879 25.4783L14.5003 21.5826L7.21349 25.4808L8.40645 18.4051L8.60626 17.2186L2.64313 11.3035L10.8784 10.0868L11.4196 8.97312L14.5011 2.62144ZM14.5003 1C13.7449 1 13.0569 1.42317 12.7357 2.08599L9.68204 8.38739L2.65494 9.42562C1.93326 9.53287 1.33383 10.0231 1.10113 10.6926C0.868444 11.3646 1.04465 12.1037 1.55387 12.6082L6.70174 17.7197L5.50709 24.8071C5.38653 25.521 5.69762 26.2375 6.30717 26.6556C6.64188 26.8844 7.0356 27 7.43016 27C7.75475 27 8.07934 26.9221 8.37357 26.7645L14.4994 23.4865L20.6253 26.7645C20.9195 26.9212 21.2449 27 21.5678 27C21.9624 27 22.3553 26.8844 22.6917 26.6556C23.3004 26.2383 23.6115 25.5219 23.4901 24.8071L22.2954 17.7197L27.4466 12.6082C27.9567 12.1046 28.1312 11.3638 27.8985 10.6926C27.6658 10.0214 27.0656 9.53204 26.3447 9.42562L19.3193 8.38739L16.264 2.08599C15.9453 1.42317 15.2565 1.00084 14.4994 1.00084L14.5003 1Z" fill="#FF4646" stroke="#FF4646" stroke-width="1.5"/>
</svg>
