<svg width="22" height="28" viewBox="0 0 22 28" fill="none" xmlns="http://www.w3.org/2000/svg">
<path d="M5.47494 8.64321C4.62775 8.59881 3.96395 7.87049 4.15105 7.04303C4.43963 5.76671 5.00347 4.56207 5.81022 3.51637C6.93139 2.06312 8.46856 0.985781 10.2172 0.427736C11.9657 -0.130309 13.8428 -0.142593 15.5986 0.392518C17.3543 0.927628 18.9054 1.98476 20.0455 3.42321C21.1856 4.86166 21.8606 6.61321 21.9807 8.44476C22.1007 10.2763 21.6601 12.101 20.7175 13.6759C19.7749 15.2509 18.375 16.5014 16.7042 17.2611C15.5019 17.8078 14.2003 18.0816 12.8918 18.0711C12.0435 18.0643 11.486 17.2518 11.6362 16.4168C11.7864 15.5819 12.5926 15.0478 13.4382 14.9804C14.1241 14.9257 14.7992 14.7525 15.4326 14.4645C16.5354 13.9631 17.4593 13.1377 18.0814 12.0983C18.7035 11.0588 18.9943 9.85451 18.9151 8.64569C18.8359 7.43686 18.3904 6.28084 17.6379 5.33146C16.8855 4.38208 15.8617 3.68438 14.7029 3.3312C13.5441 2.97803 12.3053 2.98614 11.1512 3.35445C9.99711 3.72276 8.98258 4.4338 8.24261 5.39295C7.8176 5.94383 7.49474 6.56155 7.28488 7.21682C7.02613 8.02474 6.32212 8.68761 5.47494 8.64321Z" fill="#FF4646"/>
<path d="M16.1683 20.4554C16.9751 20.7175 17.4278 21.5928 17.0329 22.3437C16.4238 23.5018 15.5674 24.5195 14.5175 25.3208C13.0584 26.4343 11.2948 27.0771 9.46135 27.1635C7.62792 27.25 5.81162 26.7761 4.2542 25.8048C2.69678 24.8335 1.4721 23.4109 0.743147 21.7264C0.0141932 20.0419 -0.18446 18.1753 0.173626 16.3751C0.531712 14.5749 1.42955 12.9264 2.74766 11.6491C4.06577 10.3717 5.74162 9.52613 7.55219 9.22477C8.855 9.00792 10.1831 9.08028 11.4443 9.42907C12.2619 9.6552 12.5901 10.5844 12.2289 11.352C11.8677 12.1196 10.9508 12.4268 10.1165 12.2731C9.43989 12.1484 8.74292 12.141 8.05659 12.2552C6.86161 12.4541 5.75555 13.0122 4.8856 13.8553C4.01565 14.6983 3.42307 15.7863 3.18674 16.9744C2.9504 18.1626 3.08151 19.3945 3.56262 20.5063C4.04373 21.6181 4.85202 22.557 5.87992 23.198C6.90782 23.8391 8.10657 24.1519 9.31664 24.0948C10.5267 24.0377 11.6907 23.6135 12.6537 22.8786C13.2068 22.4565 13.6785 21.9433 14.0509 21.3647C14.5099 20.6513 15.3615 20.1932 16.1683 20.4554Z" fill="#FF4646"/>
</svg>
