<svg width="28" height="28" viewBox="0 0 28 28" fill="none" xmlns="http://www.w3.org/2000/svg">
<path fill-rule="evenodd" clip-rule="evenodd" d="M1.35278 1.35278C1.66612 1.03946 2.10913 0.93484 2.50907 1.03894L19.9524 5.24938C20.3372 5.34227 20.6518 5.61836 20.7939 5.98786L23.7134 13.5785L26.2944 16.1595C27.2352 17.1004 27.2352 18.6256 26.2944 19.5663L19.5663 26.2944C18.6256 27.2352 17.1004 27.2352 16.1595 26.2944L13.5785 23.7134L5.98786 20.7939C5.61836 20.6518 5.34227 20.3372 5.24938 19.9524L1.03894 2.50907C0.93484 2.10913 1.03946 1.66612 1.35278 1.35278ZM10.4901 12.1935L4.37986 6.08327L7.44276 18.7724L14.6818 21.5567C14.8392 21.6172 14.982 21.7101 15.1011 21.8292L17.8629 24.591L24.591 17.8629L21.8292 15.1011C21.7101 14.982 21.6172 14.8392 21.5567 14.6818L18.7724 7.44276L6.08327 4.37986L12.1935 10.4901C12.2668 10.5634 12.3287 10.6438 12.3792 10.7291C12.5906 10.6685 12.814 10.636 13.0449 10.636C14.3754 10.636 15.4539 11.7145 15.4539 13.0449C15.4539 14.3754 14.3754 15.4539 13.0449 15.4539C11.7145 15.4539 10.636 14.3754 10.636 13.0449C10.636 12.814 10.6685 12.5906 10.7291 12.3792C10.6438 12.3287 10.5634 12.2668 10.4901 12.1935Z" fill="#FF4646" stroke="#FF4646"/>
</svg>
