<svg width="31" height="28" viewBox="0 0 31 28" fill="none" xmlns="http://www.w3.org/2000/svg">
<path fill-rule="evenodd" clip-rule="evenodd" d="M4.872 5.34215L9.39863 1L10.9806 2.51754L4.85442 8.3941L1 4.69734L2.6002 3.16235L4.872 5.34215ZM30 5.81079H16.0324V3.50307H30V5.81079Z" fill="#FF4646"/>
<path fill-rule="evenodd" clip-rule="evenodd" d="M4.872 5.34215L9.39863 1L10.9806 2.51754L4.85442 8.3941L1 4.69734L2.6002 3.16235L4.872 5.34215ZM30 5.81079H16.0324V3.50307H30V5.81079Z" fill="#FF4646"/>
<path fill-rule="evenodd" clip-rule="evenodd" d="M4.872 23.948L9.39863 19.6059L10.9806 21.1234L4.85442 27L1 23.3032L2.6002 21.7682L4.872 23.948ZM30 24.4167H16.0324V22.109H30V24.4167Z" fill="#FF4646"/>
<path fill-rule="evenodd" clip-rule="evenodd" d="M4.872 23.948L9.39863 19.6059L10.9806 21.1234L4.85442 27L1 23.3032L2.6002 21.7682L4.872 23.948ZM30 24.4167H16.0324V22.109H30V24.4167Z" fill="#FF4646"/>
<path fill-rule="evenodd" clip-rule="evenodd" d="M4.872 14.6451L9.39863 10.303L10.9806 11.8205L4.85442 17.6971L1 14.0003L2.6002 12.4653L4.872 14.6451ZM30 15.1138H16.0324V12.806H30V15.1138Z" fill="#FF4646"/>
<path fill-rule="evenodd" clip-rule="evenodd" d="M4.872 14.6451L9.39863 10.303L10.9806 11.8205L4.85442 17.6971L1 14.0003L2.6002 12.4653L4.872 14.6451ZM30 15.1138H16.0324V12.806H30V15.1138Z" fill="#FF4646"/>
<path fill-rule="evenodd" clip-rule="evenodd" d="M4.872 5.34215L9.39863 1L10.9806 2.51754L4.85442 8.3941L1 4.69734L2.6002 3.16235L4.872 5.34215ZM30 5.81079H16.0324V3.50307H30V5.81079Z" stroke="#FF4646" stroke-width="1.3"/>
<path fill-rule="evenodd" clip-rule="evenodd" d="M4.872 5.34215L9.39863 1L10.9806 2.51754L4.85442 8.3941L1 4.69734L2.6002 3.16235L4.872 5.34215ZM30 5.81079H16.0324V3.50307H30V5.81079Z" stroke="#FF4646" stroke-width="1.3"/>
<path fill-rule="evenodd" clip-rule="evenodd" d="M4.872 23.948L9.39863 19.6059L10.9806 21.1234L4.85442 27L1 23.3032L2.6002 21.7682L4.872 23.948ZM30 24.4167H16.0324V22.109H30V24.4167Z" stroke="#FF4646" stroke-width="1.3"/>
<path fill-rule="evenodd" clip-rule="evenodd" d="M4.872 23.948L9.39863 19.6059L10.9806 21.1234L4.85442 27L1 23.3032L2.6002 21.7682L4.872 23.948ZM30 24.4167H16.0324V22.109H30V24.4167Z" stroke="#FF4646" stroke-width="1.3"/>
<path fill-rule="evenodd" clip-rule="evenodd" d="M4.872 14.6451L9.39863 10.303L10.9806 11.8205L4.85442 17.6971L1 14.0003L2.6002 12.4653L4.872 14.6451ZM30 15.1138H16.0324V12.806H30V15.1138Z" stroke="#FF4646" stroke-width="1.3"/>
<path fill-rule="evenodd" clip-rule="evenodd" d="M4.872 14.6451L9.39863 10.303L10.9806 11.8205L4.85442 17.6971L1 14.0003L2.6002 12.4653L4.872 14.6451ZM30 15.1138H16.0324V12.806H30V15.1138Z" stroke="#FF4646" stroke-width="1.3"/>
</svg>
