<svg width="28" height="23" viewBox="0 0 28 23" fill="none" xmlns="http://www.w3.org/2000/svg">
<path d="M1.24674 12.6574L6.982 12.6574L5.36117 14.1058C4.86245 14.5515 4.86245 15.2201 5.36117 15.6657C5.85989 16.1114 6.60796 16.1114 7.10668 15.6657L10.8471 12.3231C10.9718 12.2117 11.0964 12.1003 11.0964 11.9889C11.2211 11.766 11.2211 11.4318 11.0964 11.0975C10.9718 10.9861 10.9718 10.8747 10.8471 10.7632L7.10668 7.42061C6.85732 7.19777 6.48328 7.08635 6.23393 7.08635C5.98457 7.08635 5.61053 7.19777 5.36117 7.42061C4.86245 7.8663 4.86245 8.53482 5.36117 8.9805L6.982 10.429L1.24674 10.429C0.498661 10.429 -5.76229e-05 10.8747 -5.76948e-05 11.5432C-5.77667e-05 12.2117 0.49866 12.6574 1.24674 12.6574Z" fill="#FF4646"/>
<path d="M9.75217 4.75067C8.98869 3.9872 8.98112 2.73302 9.86276 2.10973C11.1734 1.18317 12.6696 0.536917 14.258 0.220974C16.4887 -0.222756 18.801 0.00498277 20.9024 0.875391C23.0037 1.7458 24.7998 3.21978 26.0634 5.11095C27.327 7.00211 28.0015 9.22552 28.0015 11.5C28.0015 13.7745 27.327 15.9979 26.0634 17.8891C24.7998 19.7802 23.0037 21.2542 20.9024 22.1246C18.801 22.995 16.4887 23.2228 14.258 22.779C12.6696 22.4631 11.1734 21.8168 9.86276 20.8903C8.98112 20.267 8.98869 19.0128 9.75217 18.2493C10.5156 17.4859 11.746 17.5133 12.6788 18.0571C13.4011 18.4782 14.1919 18.7793 15.0208 18.9442C16.4931 19.237 18.0192 19.0867 19.4061 18.5123C20.793 17.9378 21.9784 16.965 22.8124 15.7168C23.6464 14.4686 24.0915 13.0012 24.0915 11.5C24.0915 9.99885 23.6464 8.5314 22.8124 7.28323C21.9784 6.03506 20.793 5.06223 19.4061 4.48776C18.0192 3.91329 16.4931 3.76298 15.0208 4.05585C14.1919 4.22071 13.4011 4.52184 12.6788 4.94295C11.746 5.48674 10.5156 5.51415 9.75217 4.75067Z" fill="#FF4646"/>
</svg>
