<svg width="35" height="35" viewBox="0 0 35 35" fill="none" xmlns="http://www.w3.org/2000/svg">
<path d="M29.6992 34H29.2635C24.3556 33.4681 19.6403 31.8011 15.4936 29.1321C11.6414 26.6881 8.37067 23.4364 5.90954 19.6038C3.22404 15.4623 1.55035 10.7514 1.02282 5.84906C0.962508 5.26434 1.02206 4.67349 1.19789 4.1124C1.37369 3.5513 1.6621 3.03162 2.04562 2.58491C2.41864 2.13221 2.87905 1.75868 3.39962 1.48643C3.92017 1.21421 4.49027 1.04879 5.07614 1H10.0007C11.0673 1.00108 12.0984 1.38202 12.9077 2.07404C13.717 2.76606 14.2512 3.72355 14.4139 4.77359C14.5939 6.12242 14.9307 7.4458 15.4178 8.71699C15.714 9.51582 15.7752 10.3823 15.5942 11.2146C15.4129 12.0469 14.9969 12.8103 14.395 13.4151L13.2396 14.566C15.0587 17.4268 17.4988 19.8447 20.3803 21.6415L21.5357 20.5094C22.1427 19.9098 22.9093 19.4955 23.7447 19.3149C24.5802 19.1345 25.45 19.1955 26.2519 19.4906C27.5295 19.9713 28.8574 20.3068 30.2106 20.4906C31.2826 20.6511 32.259 21.1958 32.9566 22.0226C33.654 22.8496 34.0247 23.9015 33.9987 24.9811V29.5094C33.9987 30.6872 33.5303 31.817 32.6962 32.6515C31.862 33.486 30.7299 33.9574 29.5476 33.9623L29.6992 34ZM10.0007 3.81132H5.4739C5.25163 3.82596 5.03464 3.88534 4.83607 3.98587C4.63748 4.0864 4.46142 4.226 4.31851 4.39623C4.17945 4.55568 4.07418 4.74153 4.00908 4.94257C3.94398 5.14361 3.92038 5.35568 3.9397 5.56604C4.39899 10.0128 5.89745 14.2906 8.31502 18.0566C10.5437 21.5409 13.5111 24.497 17.0088 26.717C20.7919 29.1506 25.0909 30.6751 29.5666 31.1698C29.7994 31.1828 30.0323 31.1477 30.2507 31.0666C30.4691 30.9853 30.6684 30.8598 30.8356 30.6981C31.1371 30.3902 31.307 29.9775 31.3091 29.5472V25.0377C31.3177 24.6407 31.1798 24.2543 30.9214 23.9517C30.6631 23.6492 30.3022 23.4515 29.9075 23.3962C28.3428 23.1866 26.8058 22.807 25.3238 22.2641C25.032 22.1555 24.7151 22.1313 24.41 22.1949C24.1048 22.2583 23.8241 22.4066 23.6002 22.6226L21.7062 24.5094C21.4844 24.7249 21.1985 24.8634 20.8915 24.9041C20.5843 24.9449 20.2723 24.8858 20.0015 24.7358C15.9599 22.4607 12.6145 19.1349 10.3227 15.1132C10.1659 14.8453 10.1031 14.5328 10.1442 14.2253C10.1854 13.9179 10.3282 13.6328 10.55 13.4151L12.4441 11.5283C12.6613 11.3095 12.8107 11.033 12.8746 10.7319C12.9384 10.4308 12.9139 10.1178 12.804 9.83019C12.257 8.35468 11.8758 6.82332 11.6675 5.26415C11.6205 4.859 11.4238 4.48578 11.1157 4.21721C10.8076 3.94862 10.4101 3.80395 10.0007 3.81132Z" fill="#FF4646" stroke="#FF4646" stroke-width="0.6"/>
</svg>
