<svg width="31" height="31" viewBox="0 0 31 31" fill="none" xmlns="http://www.w3.org/2000/svg">
<path d="M1.2783 30C1.21777 30.0001 1.15887 29.9845 1.11053 29.9558C1.06219 29.927 1.02705 29.8865 1.01044 29.8405C0.993824 29.7946 0.996654 29.7456 1.01848 29.701C1.04032 29.6564 1.07995 29.6186 1.1314 29.5934C1.17063 29.5741 5.06832 27.6464 6.0426 25.6741C6.07009 25.6206 6.12318 25.5777 6.19036 25.5549C6.25754 25.532 6.33341 25.531 6.40155 25.552C6.46969 25.573 6.52462 25.6143 6.55444 25.6671C6.58427 25.7199 6.58659 25.7798 6.5609 25.8339C5.51902 27.9438 1.59129 29.8853 1.42464 29.9657C1.3809 29.9878 1.33019 29.9997 1.2783 30Z" fill="#FF4646" stroke="#FF4646" stroke-width="2"/>
<path d="M4.66172 27.6347L4.64711 26.6913C4.61358 22.122 5.85863 17.6354 8.23981 13.7451L8.4978 13.3634H11.7706L10.9769 10.7814L11.2289 10.4352C16.0539 3.74096 24.3787 1.6861 27.7341 1.1131C28.0251 1.06493 28.3231 1.08401 28.6056 1.16889C28.8882 1.25377 29.1479 1.40224 29.365 1.60304C29.5822 1.80385 29.7511 2.05176 29.859 2.32797C29.9669 2.60419 30.011 2.90149 29.9879 3.19739C28.4478 24.9186 5.82002 27.5196 5.59129 27.5413L4.66172 27.6347ZM9.43167 15.0945C7.58838 18.3271 6.54047 21.9568 6.37552 25.6803C10.5968 24.9783 26.9989 21.0928 28.2767 3.07102C28.2804 3.03378 28.2753 2.99618 28.2619 2.96129C28.2484 2.9264 28.227 2.89521 28.1993 2.87022C28.177 2.84815 28.1497 2.83188 28.1197 2.82283C28.0897 2.81378 28.058 2.81223 28.0273 2.81828C24.9402 3.34454 17.3704 5.20032 12.8808 11.106L13.5481 13.295C13.6116 13.503 13.6257 13.7231 13.5893 13.9376C13.5529 14.1522 13.467 14.3551 13.3386 14.5301C13.2101 14.7051 13.0426 14.8473 12.8496 14.9454C12.6566 15.0434 12.4434 15.0945 12.2272 15.0945H9.43167Z" fill="#FF4646" stroke="#FF4646" stroke-width="2"/>
</svg>
