<svg width="31" height="28" viewBox="0 0 31 28" fill="none" xmlns="http://www.w3.org/2000/svg">
<path d="M29 20.0964V4.58072C29 3.03814 27.677 1.89407 26.0705 2.02261H25.9895C23.1545 2.254 18.848 3.62946 16.445 5.0692L16.2155 5.21061C15.824 5.44199 15.176 5.44199 14.7845 5.21061L14.447 5.01778C12.044 3.5909 7.751 2.22829 4.916 2.00976C3.3095 1.88121 2 3.03814 2 4.56787V20.0964C2 21.3305 3.053 22.4874 4.349 22.6417L4.7405 22.6931C7.67 23.0659 12.1925 24.4799 14.7845 25.8297L14.8385 25.8554C15.203 26.0482 15.7835 26.0482 16.1345 25.8554C18.7265 24.4928 23.2625 23.0659 26.2055 22.6931L26.651 22.6417C27.947 22.4874 29 21.3305 29 20.0964Z" stroke="#FF4646" stroke-width="3" stroke-linecap="round" stroke-linejoin="round"/>
<path d="M15.5 5.69232V24.1539" stroke="#FF4646" stroke-width="3" stroke-linecap="round" stroke-linejoin="round"/>
</svg>
