<svg width="41" height="10" viewBox="0 0 41 10" fill="none" xmlns="http://www.w3.org/2000/svg">
<path d="M5.43784 9L3.81784 6.66H3.72184H2.02984V9H0.0858438V0.599999H3.72184C4.46584 0.599999 5.10984 0.724 5.65384 0.972C6.20584 1.22 6.62984 1.572 6.92584 2.028C7.22184 2.484 7.36984 3.024 7.36984 3.648C7.36984 4.272 7.21784 4.812 6.91384 5.268C6.61784 5.716 6.19384 6.06 5.64184 6.3L7.52584 9H5.43784ZM5.40184 3.648C5.40184 3.176 5.24984 2.816 4.94584 2.568C4.64184 2.312 4.19784 2.184 3.61384 2.184H2.02984V5.112H3.61384C4.19784 5.112 4.64184 4.984 4.94584 4.728C5.24984 4.472 5.40184 4.112 5.40184 3.648ZM12.6421 9.144C11.4421 9.144 10.5061 8.812 9.83406 8.148C9.17006 7.484 8.83806 6.536 8.83806 5.304V0.599999H10.7821V5.232C10.7821 6.736 11.4061 7.488 12.6541 7.488C13.2621 7.488 13.7261 7.308 14.0461 6.948C14.3661 6.58 14.5261 6.008 14.5261 5.232V0.599999H16.4461V5.304C16.4461 6.536 16.1101 7.484 15.4381 8.148C14.7741 8.812 13.8421 9.144 12.6421 9.144Z" fill="#727272"/>
<path d="M31.668 7.44V9H25.164V0.599999H31.512V2.16H27.096V3.984H30.996V5.496H27.096V7.44H31.668ZM40.9188 0.599999V9H39.3228L35.1348 3.9V9H33.2148V0.599999H34.8228L38.9987 5.7V0.599999H40.9188Z" fill="#FF4646"/>
</svg>
