<svg width="32" height="28" viewBox="0 0 32 28" fill="none" xmlns="http://www.w3.org/2000/svg">
<path d="M14.75 19.2035H7.25C3.875 19.2035 1 16.3448 1 12.7064C1 9.06806 3.75 6.20935 7.25 6.20935H14.75C15.5 6.20935 16 6.72912 16 7.50876V17.9041C16 18.6837 15.5 19.2035 14.75 19.2035ZM7.25 8.80818C5.25 8.80818 3.5 10.4974 3.5 12.7064C3.5 14.9154 5.125 16.6047 7.25 16.6047H13.5V8.80818H7.25Z" fill="#FF4646" stroke="#FF4646"/>
<path d="M29.75 24.4012C29.625 24.4012 29.5 24.4012 29.375 24.2712L14.375 19.0736C13.875 18.9436 13.5 18.4239 13.5 17.9041V7.50879C13.5 6.98902 13.875 6.46926 14.375 6.33931L29.375 1.14166C29.75 0.881775 30.125 1.01172 30.5 1.2716C30.75 1.53148 31 1.92131 31 2.31113V23.1018C31 23.4916 30.75 23.8814 30.5 24.1413C30.25 24.2712 30 24.4012 29.75 24.4012ZM16 16.9945L28.5 21.2826V4.13031L16 8.41838V16.9945Z" fill="#FF4646" stroke="#FF4646"/>
<path d="M11 27H5.99998C5.62498 27 5.24998 26.7401 4.99998 26.4802C4.74998 26.0904 4.62498 25.7006 4.87498 25.3108L7.37498 17.5143C7.49998 16.9945 7.99998 16.6047 8.49998 16.6047H13.5C13.875 16.6047 14.25 16.8646 14.5 17.1244C14.75 17.5143 14.75 17.9041 14.625 18.2939L12.125 26.0904C12 26.6102 11.5 27 11 27ZM7.74998 24.4012H10.125L11.75 19.2035H9.37498L7.74998 24.4012Z" fill="#FF4646" stroke="#FF4646"/>
</svg>
