<svg width="30" height="26" viewBox="0 0 30 26" fill="none" xmlns="http://www.w3.org/2000/svg">
<path d="M19.8903 24.2853H1.91631V1.71458H19.8903V7.30933L21.8064 5.5947V0.857289C21.8065 0.383859 21.3774 0 20.8484 0H0.958244C0.429101 0 0 0.383859 0 0.857289V25.1427C0 25.6161 0.429042 26 0.958244 26H20.8484C21.3774 26 21.8065 25.6161 21.8065 25.1427V15.7088L19.8903 17.4235V24.2853Z" fill="#FF4646"/>
<path d="M17.3884 3.25751H4.93709C4.52882 3.25751 4.19751 3.70542 4.19751 4.25755C4.19751 4.80959 4.52882 5.25751 4.93709 5.25751H17.3883C17.7967 5.25751 18.128 4.80959 18.128 4.25755C18.128 3.70542 17.7967 3.25751 17.3884 3.25751Z" fill="#FF4646"/>
<path d="M18.128 8.20227C18.128 7.65025 17.7967 7.20227 17.3884 7.20227H4.93709C4.52882 7.20227 4.19751 7.65025 4.19751 8.20227C4.19751 8.75438 4.52882 9.20227 4.93709 9.20227H17.3883C17.7967 9.20227 18.128 8.75446 18.128 8.20227Z" fill="#FF4646"/>
<path d="M16.3477 11.1473H4.93709C4.52882 11.1473 4.19751 11.5953 4.19751 12.1474C4.19751 12.6995 4.52882 13.1473 4.93709 13.1473H14.8683L16.3477 11.1473Z" fill="#FF4646"/>
<path d="M12.2103 16.3883C12.3104 15.9352 12.4534 15.501 12.6277 15.0922H4.93721C4.52894 15.0922 4.19763 15.5401 4.19763 16.0922C4.19763 16.6442 4.52894 17.0922 4.93721 17.0922H12.0552L12.2103 16.3883Z" fill="#FF4646"/>
<path d="M28.6024 3.60247C28.2149 3.21472 27.6893 2.99713 27.1419 2.99713C26.5944 2.99713 26.069 3.21472 25.6819 3.60199L14.7388 14.5454C14.4402 14.8439 14.2212 15.2113 14.1002 15.6158L13.2282 18.5389C13.1911 18.6627 13.2248 18.7966 13.3163 18.8881C13.3833 18.9551 13.4729 18.9911 13.5648 18.9911C13.5981 18.9911 13.6322 18.9864 13.6655 18.9763L16.5884 18.1041C16.993 17.9832 17.3605 17.7641 17.6589 17.4656L28.6024 6.52265C28.9895 6.13544 29.2072 5.61011 29.2072 5.06259C29.2072 4.51495 28.9896 3.98962 28.6024 3.60247Z" fill="#FF4646"/>
</svg>
