<svg width="26" height="26" viewBox="0 0 26 26" fill="none" xmlns="http://www.w3.org/2000/svg">
<path d="M14.6263 0C11.611 0.00365486 8.72015 1.20312 6.58796 3.33531C4.45578 5.46749 3.25631 8.35831 3.25265 11.3737C3.26068 13.8231 4.06686 16.2032 5.54905 18.1534L0.479049 23.2234C0.327498 23.3741 0.207173 23.5532 0.12497 23.7505C0.042766 23.9478 0.000298935 24.1594 1.57253e-06 24.3731C-0.000295789 24.5868 0.0415824 24.7985 0.123237 24.996C0.204891 25.1936 0.324717 25.373 0.475848 25.5242C0.62698 25.6753 0.806447 25.7951 1.00397 25.8768C1.20149 25.9584 1.41318 26.0003 1.62691 26C1.84064 25.9997 2.05221 25.9572 2.2495 25.875C2.4468 25.7928 2.62593 25.6725 2.77664 25.521L7.84664 20.4509C9.79677 21.9331 12.1769 22.7393 14.6263 22.7473C17.6428 22.7473 20.5358 21.5491 22.6687 19.4161C24.8017 17.2831 26 14.3902 26 11.3737C26 8.35719 24.8017 5.46425 22.6687 3.33127C20.5358 1.19829 17.6428 0 14.6263 0ZM14.6263 19.4977C13.0195 19.4977 11.4488 19.0213 10.1128 18.1286C8.77685 17.2359 7.73557 15.9671 7.12068 14.4826C6.50579 12.9981 6.34491 11.3647 6.65838 9.78875C6.97184 8.21284 7.74559 6.76527 8.88175 5.6291C10.0179 4.49293 11.4655 3.71919 13.0414 3.40572C14.6173 3.09225 16.2508 3.25314 17.7353 3.86803C19.2197 4.48292 20.4885 5.5242 21.3812 6.86019C22.2739 8.19618 22.7504 9.76689 22.7504 11.3737C22.7479 13.5275 21.8911 15.5924 20.3681 17.1154C18.8451 18.6385 16.7802 19.4952 14.6263 19.4977Z" fill="#FF4646"/>
</svg>
